<?xml version="1.0" standalone="no"?>
<!DOCTYPE svg PUBLIC "-//W3C//DTD SVG 20010904//EN"
 "http://www.w3.org/TR/2001/REC-SVG-20010904/DTD/svg10.dtd">
<svg version="1.0" xmlns="http://www.w3.org/2000/svg"
 width="860.000000pt" height="860.000000pt" viewBox="0 0 860.000000 860.000000"
 preserveAspectRatio="xMidYMid meet">
<metadata>
Created by potrace 1.14, written by Peter Selinger 2001-2017
</metadata>
<g transform="translate(0.000000,860.000000) scale(0.100000,-0.100000)"
fill="#000000" stroke="none">
<path d="M4119 7296 c-2 -2 -40 -6 -84 -10 -44 -3 -91 -8 -105 -9 -14 -2 -50
-7 -80 -11 -113 -16 -299 -58 -425 -97 -494 -155 -894 -397 -1255 -759 -357
-359 -613 -796 -755 -1291 -19 -66 -37 -130 -39 -142 -65 -350 -71 -402 -71
-677 0 -222 4 -268 40 -520 14 -96 68 -302 116 -444 71 -210 162 -406 268
-579 20 -34 44 -73 52 -87 8 -14 17 -27 20 -30 3 -3 20 -27 39 -55 80 -120
213 -278 340 -405 501 -499 1125 -793 1845 -867 93 -10 448 -10 553 0 341 31
710 134 1022 284 411 198 741 462 1055 844 62 74 174 240 239 354 54 93 176
337 176 351 0 3 7 20 14 37 43 93 144 430 160 534 2 15 10 62 16 103 6 41 14
86 16 100 25 143 25 588 0 750 -2 14 -7 52 -11 85 -4 33 -9 62 -10 65 -2 3 -6
25 -10 50 -4 24 -20 96 -36 160 -17 63 -32 122 -34 130 -6 24 -60 178 -88 251
-34 91 -136 299 -193 395 -396 672 -1009 1152 -1751 1373 -137 40 -339 82
-468 97 -33 3 -69 8 -80 11 -25 6 -470 14 -476 9z m-154 -766 c72 -28 148 -60
170 -70 22 -10 159 -68 305 -130 146 -62 293 -125 327 -141 34 -16 64 -29 67
-29 2 0 37 -15 78 -34 40 -19 142 -64 226 -101 84 -36 181 -79 215 -95 126
-58 214 -97 270 -121 l57 -24 -5 -70 c-3 -38 -8 -90 -10 -115 -2 -25 -7 -79
-10 -120 -7 -86 -12 -151 -20 -230 -3 -30 -7 -84 -10 -120 -3 -36 -7 -85 -10
-110 -2 -25 -7 -81 -10 -125 -4 -44 -8 -91 -10 -105 -2 -14 -6 -63 -10 -110
-4 -47 -8 -101 -10 -120 -2 -19 -6 -73 -10 -120 -3 -47 -8 -101 -10 -120 -2
-19 -7 -73 -10 -120 -3 -47 -8 -101 -10 -120 -2 -19 -7 -69 -10 -110 -3 -41
-8 -95 -10 -120 -6 -61 -14 -158 -20 -227 -2 -32 -7 -83 -9 -113 -3 -30 -8
-86 -11 -125 -3 -38 -8 -88 -10 -110 -2 -22 -7 -78 -10 -125 -4 -47 -8 -101
-10 -120 -2 -19 -7 -71 -10 -115 -4 -44 -8 -95 -10 -112 -6 -73 -226 -272
-392 -357 -138 -70 -259 -98 -413 -98 -195 0 -359 58 -481 170 -104 96 -148
198 -154 364 -6 169 44 300 159 413 125 123 270 176 482 176 141 0 306 -32
451 -86 36 -14 69 -25 73 -25 9 0 14 44 35 305 3 39 8 90 10 115 3 25 7 88 10
140 3 52 8 106 10 120 2 14 7 66 10 115 7 115 15 211 20 255 2 19 7 85 11 145
3 61 8 117 9 126 2 8 6 69 10 135 l7 120 -28 13 c-16 7 -108 47 -204 87 -96
41 -188 81 -205 88 -16 8 -115 51 -220 96 -104 45 -226 98 -270 117 -44 19
-96 41 -115 49 -19 8 -91 39 -160 69 l-125 53 -7 -57 c-3 -31 -9 -107 -13
-170 -4 -63 -8 -122 -10 -130 -1 -9 -6 -68 -10 -131 -8 -132 -10 -162 -19
-285 -4 -49 -9 -119 -11 -155 -3 -36 -7 -90 -10 -120 -2 -30 -7 -93 -10 -140
-3 -47 -8 -114 -10 -150 -3 -36 -7 -105 -10 -155 -3 -49 -8 -112 -10 -140 -2
-27 -6 -95 -10 -150 -3 -55 -8 -120 -10 -145 -2 -25 -7 -92 -11 -150 -3 -58
-10 -112 -14 -120 -16 -28 -175 -180 -238 -225 -92 -67 -244 -143 -317 -159
-5 -2 -37 -8 -70 -16 -97 -21 -266 -17 -364 9 -147 39 -269 112 -343 204 -46
59 -63 96 -84 186 -62 267 54 525 288 639 75 36 120 50 213 67 59 11 228 5
317 -10 50 -9 145 -34 211 -56 135 -44 134 -44 134 -26 0 14 14 198 18 247 2
19 6 80 10 135 4 55 9 107 10 115 2 8 6 67 10 130 3 63 8 126 10 140 2 14 7
66 10 115 3 50 8 110 10 135 6 72 14 169 21 260 3 47 7 101 9 120 2 19 6 80
10 135 3 55 8 111 10 125 2 14 7 70 10 125 4 55 8 116 10 135 2 19 6 80 10
135 3 55 8 111 10 125 2 14 6 68 10 120 4 52 8 111 10 130 2 19 6 76 10 127 6
77 10 122 14 130 2 4 101 -31 216 -77z"/>
<path d="M3989 6023 c-4 -35 -7 -69 -10 -142 l-4 -85 180 -78 c99 -44 191 -83
205 -89 43 -18 833 -360 889 -385 30 -13 55 -23 57 -22 1 2 5 48 9 102 3 55 8
103 10 107 8 12 -15 23 -245 124 -124 54 -258 113 -298 132 -39 18 -74 33 -76
33 -3 0 -33 13 -68 29 -35 16 -173 77 -308 136 -135 59 -256 113 -270 120 -38
19 -70 27 -71 18z"/>
</g>
</svg>
